<?xml version="1.0" encoding="UTF-8" standalone="no"?>
<!DOCTYPE svg PUBLIC "-//W3C//DTD SVG 1.1//EN"
 "http://www.w3.org/Graphics/SVG/1.1/DTD/svg11.dtd">
<!-- Generated by graphviz version 2.47.0 (20210316.0004)
 -->
<!-- Title: dependencies Pages: 1 -->
<svg width="566pt" height="355pt"
 viewBox="0.00 0.00 566.00 355.00" xmlns="http://www.w3.org/2000/svg" xmlns:xlink="http://www.w3.org/1999/xlink">
<g id="graph0" class="graph" transform="scale(1 1) rotate(0) translate(4 351)">
<title>dependencies</title>
<polygon fill="white" stroke="transparent" points="-4,4 -4,-351 562,-351 562,4 -4,4"/>
<text text-anchor="start" x="258.01" y="-42.4" font-family="Times-12" font-weight="bold" font-size="14.00">Legend</text>
<polygon fill="#ffffb3" stroke="transparent" points="45,-10 45,-30 65,-30 65,-10 45,-10"/>
<text text-anchor="start" x="68.63" y="-15.4" font-family="Times-12" font-size="14.00"> &#160;Declarations</text>
<polygon fill="#8dd3c7" stroke="transparent" points="158,-10 158,-30 178,-30 178,-10 158,-10"/>
<text text-anchor="start" x="181.73" y="-15.4" font-family="Times-12" font-size="14.00"> &#160;Module</text>
<polygon fill="#80b1d3" stroke="transparent" points="244,-10 244,-30 264,-30 264,-10 244,-10"/>
<text text-anchor="start" x="267.78" y="-15.4" font-family="Times-12" font-size="14.00"> &#160;Bootstrap</text>
<polygon fill="#fdb462" stroke="transparent" points="341,-10 341,-30 361,-30 361,-10 341,-10"/>
<text text-anchor="start" x="364.67" y="-15.4" font-family="Times-12" font-size="14.00"> &#160;Providers</text>
<polygon fill="#fb8072" stroke="transparent" points="437,-10 437,-30 457,-30 457,-10 437,-10"/>
<text text-anchor="start" x="460.73" y="-15.4" font-family="Times-12" font-size="14.00"> &#160;Exports</text>
<g id="clust1" class="cluster">
<title>cluster_AppModule</title>
<polygon fill="none" stroke="black" stroke-dasharray="1,5" points="168,-146 168,-339 535,-339 535,-146 168,-146"/>
</g>
<g id="clust3" class="cluster">
<title>cluster_AppModule_imports</title>
<polygon fill="none" stroke="black" points="314,-154 314,-274 527,-274 527,-154 314,-154"/>
</g>
<g id="clust6" class="cluster">
<title>cluster_AppModule_providers</title>
<polygon fill="none" stroke="black" points="176,-222 176,-274 306,-274 306,-222 176,-222"/>
</g>
<g id="clust7" class="cluster">
<title>cluster_AuthModule</title>
<polygon fill="none" stroke="black" stroke-dasharray="1,5" points="400,-70 400,-138 550,-138 550,-70 400,-70"/>
</g>
<g id="clust12" class="cluster">
<title>cluster_AuthModule_providers</title>
<polygon fill="none" stroke="black" points="408,-78 408,-130 542,-130 542,-78 408,-78"/>
</g>
<g id="clust13" class="cluster">
<title>cluster_PostsModule</title>
<polygon fill="none" stroke="black" stroke-dasharray="1,5" points="8,-146 8,-214 160,-214 160,-146 8,-146"/>
</g>
<g id="clust18" class="cluster">
<title>cluster_PostsModule_providers</title>
<polygon fill="none" stroke="black" points="16,-154 16,-206 152,-206 152,-154 16,-154"/>
</g>
<!-- AuthModule -->
<g id="node1" class="node">
<title>AuthModule</title>
<polygon fill="#8dd3c7" stroke="black" points="518.55,-198 515.55,-202 494.55,-202 491.55,-198 431.45,-198 431.45,-162 518.55,-162 518.55,-198"/>
<text text-anchor="middle" x="475" y="-175.8" font-family="Times,serif" font-size="14.00">AuthModule</text>
</g>
<!-- AppModule -->
<g id="node4" class="node">
<title>AppModule</title>
<polygon fill="#8dd3c7" stroke="black" points="440.66,-331 437.66,-335 416.66,-335 413.66,-331 357.34,-331 357.34,-295 440.66,-295 440.66,-331"/>
<text text-anchor="middle" x="399" y="-308.8" font-family="Times,serif" font-size="14.00">AppModule</text>
</g>
<!-- AuthModule&#45;&gt;AppModule -->
<g id="edge1" class="edge">
<title>AuthModule&#45;&gt;AppModule</title>
<path fill="none" stroke="black" d="M436.03,-198.21C436.03,-198.21 436.03,-284.58 436.03,-284.58"/>
<polygon fill="black" stroke="black" points="432.53,-284.58 436.03,-294.58 439.53,-284.58 432.53,-284.58"/>
</g>
<!-- PostsModule -->
<g id="node2" class="node">
<title>PostsModule</title>
<polygon fill="#8dd3c7" stroke="black" points="411.61,-266 408.61,-270 387.61,-270 384.61,-266 322.39,-266 322.39,-230 411.61,-230 411.61,-266"/>
<text text-anchor="middle" x="367" y="-243.8" font-family="Times,serif" font-size="14.00">PostsModule</text>
</g>
<!-- PostsModule&#45;&gt;AppModule -->
<g id="edge2" class="edge">
<title>PostsModule&#45;&gt;AppModule</title>
<path fill="none" stroke="black" d="M384.36,-266.11C384.36,-266.11 384.36,-284.99 384.36,-284.99"/>
<polygon fill="black" stroke="black" points="380.86,-284.99 384.36,-294.99 387.86,-284.99 380.86,-284.99"/>
</g>
<!-- UsersModule -->
<g id="node3" class="node">
<title>UsersModule</title>
<polygon fill="#8dd3c7" stroke="black" points="413.92,-198 410.92,-202 389.92,-202 386.92,-198 322.08,-198 322.08,-162 413.92,-162 413.92,-198"/>
<text text-anchor="middle" x="368" y="-175.8" font-family="Times,serif" font-size="14.00">UsersModule</text>
</g>
<!-- UsersModule&#45;&gt;PostsModule -->
<g id="edge6" class="edge">
<title>UsersModule&#45;&gt;PostsModule</title>
<path fill="none" stroke="black" d="M367,-198.22C367,-198.22 367,-219.73 367,-219.73"/>
<polygon fill="black" stroke="black" points="363.5,-219.73 367,-229.73 370.5,-219.73 363.5,-219.73"/>
</g>
<!-- UsersModule&#45;&gt;AppModule -->
<g id="edge3" class="edge">
<title>UsersModule&#45;&gt;AppModule</title>
<path fill="none" stroke="black" d="M413.8,-180C419.55,-180 423.46,-180 423.46,-180 423.46,-180 423.46,-284.79 423.46,-284.79"/>
<polygon fill="black" stroke="black" points="419.96,-284.79 423.46,-294.79 426.96,-284.79 419.96,-284.79"/>
</g>
<!-- AppService -->
<g id="node5" class="node">
<title>AppService</title>
<ellipse fill="#fdb462" stroke="black" cx="241" cy="-248" rx="56.74" ry="18"/>
<text text-anchor="middle" x="241" y="-243.8" font-family="Times,serif" font-size="14.00">AppService</text>
</g>
<!-- AppService&#45;&gt;AppModule -->
<g id="edge4" class="edge">
<title>AppService&#45;&gt;AppModule</title>
<path fill="none" stroke="black" d="M241,-266.11C241,-285.34 241,-313 241,-313 241,-313 347.07,-313 347.07,-313"/>
<polygon fill="black" stroke="black" points="347.07,-316.5 357.07,-313 347.07,-309.5 347.07,-316.5"/>
</g>
<!-- AuthService -->
<g id="node6" class="node">
<title>AuthService</title>
<ellipse fill="#fdb462" stroke="black" cx="475" cy="-104" rx="59.11" ry="18"/>
<text text-anchor="middle" x="475" y="-99.8" font-family="Times,serif" font-size="14.00">AuthService</text>
</g>
<!-- AuthService&#45;&gt;AuthModule -->
<g id="edge5" class="edge">
<title>AuthService&#45;&gt;AuthModule</title>
<path fill="none" stroke="black" d="M475,-122.01C475,-122.01 475,-151.85 475,-151.85"/>
<polygon fill="black" stroke="black" points="471.5,-151.85 475,-161.85 478.5,-151.85 471.5,-151.85"/>
</g>
<!-- PostsService -->
<g id="node7" class="node">
<title>PostsService</title>
<ellipse fill="#fdb462" stroke="black" cx="84" cy="-180" rx="60.27" ry="18"/>
<text text-anchor="middle" x="84" y="-175.8" font-family="Times,serif" font-size="14.00">PostsService</text>
</g>
<!-- PostsService&#45;&gt;PostsModule -->
<g id="edge7" class="edge">
<title>PostsService&#45;&gt;PostsModule</title>
<path fill="none" stroke="black" d="M144.55,-180C211.48,-180 309.95,-180 309.95,-180 309.95,-180 309.95,-248 309.95,-248 309.95,-248 312.33,-248 312.33,-248"/>
<polygon fill="black" stroke="black" points="312.33,-251.5 322.33,-248 312.33,-244.5 312.33,-251.5"/>
</g>
</g>
</svg>
